<svg width="37" height="36" viewBox="0 0 37 36" fill="none" xmlns="http://www.w3.org/2000/svg">
<g clip-path="url(#clip0_28_223)">
<path d="M18.5 36C28.4412 36 36.5 27.9412 36.5 18C36.5 8.05875 28.4412 0 18.5 0C8.55875 0 0.5 8.05875 0.5 18C0.5 27.9412 8.55875 36 18.5 36Z" fill="#D6001C"/>
<path d="M10.7375 9.87695V16C11.6697 14.8885 12.7872 14.329 14.0832 14.329C14.7507 14.329 15.3485 14.4565 15.8847 14.7092C16.4225 14.9605 16.8245 15.283 17.096 15.6745C17.369 16.0697 17.5535 16.5025 17.6532 16.9795C17.7522 17.4542 17.8017 18.193 17.8017 19.195V25.7417H14.9052V19.8452C14.9052 18.6752 14.8527 17.9342 14.7425 17.6192C14.6392 17.3106 14.4343 17.0462 14.1612 16.8692C13.8822 16.681 13.535 16.588 13.1157 16.588C12.6357 16.588 12.2052 16.708 11.831 16.9465C11.4485 17.1865 11.174 17.545 11 18.0242C10.823 18.5042 10.7345 19.213 10.7375 20.1512L10.7345 25.7417H7.84174V9.87695H10.7382M22.1427 9.87695V16C23.0757 14.8885 24.1925 14.329 25.4877 14.329C26.153 14.329 26.7552 14.4565 27.2922 14.7092C27.8277 14.9605 28.2297 15.283 28.4997 15.6745C28.7722 16.0671 28.9618 16.5111 29.057 16.9795C29.1567 17.4542 29.2062 18.193 29.2062 19.195V25.7417H26.3127V19.8452C26.3127 18.6752 26.258 17.9342 26.1477 17.6192C26.0444 17.3102 25.8389 17.0457 25.565 16.8692C25.289 16.681 24.9387 16.588 24.5195 16.588C24.0402 16.588 23.6097 16.708 23.2347 16.9465C22.8575 17.1865 22.5815 17.545 22.4052 18.0242C22.2312 18.5042 22.1427 19.213 22.1427 20.1512V25.7417H19.25V9.87695H22.1427Z" fill="#FEFEFE"/>
</g>
<defs>
<clipPath id="clip0_28_223">
<rect width="36" height="36" fill="white" transform="translate(0.5)"/>
</clipPath>
</defs>
</svg>
