<svg width="170" height="30" viewBox="0 0 170 30" fill="none" xmlns="http://www.w3.org/2000/svg">
<path d="M7.848 29.016C6.024 29.016 4.524 28.584 3.348 27.72C2.196 26.856 1.344 25.74 0.792 24.372C0.264 23.004 0 21.588 0 20.124C0 18.228 0.288 16.332 0.864 14.436C1.44 12.516 2.232 10.692 3.24 8.964C4.272 7.236 5.436 5.7 6.732 4.356C8.028 3.012 9.408 1.956 10.872 1.188C12.36 0.396 13.836 0 15.3 0C16.356 0 17.244 0.252 17.964 0.756001C18.684 1.236 19.044 2.076 19.044 3.276C19.044 3.996 18.912 4.8 18.648 5.688C18.408 6.576 18.072 7.44 17.64 8.28C17.232 9.096 16.764 9.768 16.236 10.296C15.708 10.824 15.168 11.088 14.616 11.088C14.376 11.088 14.124 11.004 13.86 10.836C13.596 10.668 13.356 10.38 13.14 9.972C13.5 9.564 13.908 9.072 14.364 8.496C14.82 7.896 15.252 7.272 15.66 6.624C16.068 5.952 16.404 5.304 16.668 4.68C16.932 4.032 17.064 3.468 17.064 2.988C17.064 2.556 16.944 2.22 16.704 1.98C16.464 1.716 16.044 1.584 15.444 1.584C14.388 1.584 13.296 1.98 12.168 2.772C11.064 3.564 9.996 4.632 8.964 5.976C7.932 7.296 6.996 8.784 6.156 10.44C5.34 12.072 4.692 13.764 4.212 15.516C3.732 17.244 3.492 18.888 3.492 20.448C3.492 21.6 3.66 22.704 3.996 23.76C4.356 24.792 4.92 25.632 5.688 26.28C6.456 26.952 7.464 27.288 8.712 27.288C10.008 27.288 11.292 26.928 12.564 26.208C13.86 25.488 15.036 24.54 16.092 23.364C17.172 22.188 18.036 20.928 18.684 19.584L19.62 20.196C18.78 21.804 17.772 23.28 16.596 24.624C15.42 25.944 14.088 27 12.6 27.792C11.136 28.608 9.552 29.016 7.848 29.016Z" fill="url(#paint0_radial_112_118)"/>
<path d="M19.4884 27.252C18.9604 27.252 18.5764 26.844 18.3364 26.028C18.1204 25.212 18.0124 24.264 18.0124 23.184C18.0124 22.08 18.1924 20.748 18.5524 19.188C18.9364 17.628 19.4404 15.984 20.0644 14.256C20.7124 12.528 21.4204 10.836 22.1884 9.18C22.9804 7.524 23.7844 6.024 24.6004 4.68C25.4404 3.312 26.2324 2.22 26.9764 1.404C27.7444 0.588 28.4164 0.18 28.9924 0.18C29.4964 0.18 29.8804 0.456 30.1444 1.008C30.4084 1.56 30.5404 2.136 30.5404 2.736C30.5404 3.384 30.3844 4.188 30.0724 5.148C29.7844 6.084 29.3764 7.092 28.8484 8.172C28.3204 9.252 27.6964 10.32 26.9764 11.376C26.2804 12.408 25.5124 13.356 24.6724 14.22C23.8564 15.084 23.0044 15.78 22.1164 16.308C21.8044 17.124 21.5524 17.892 21.3604 18.612C21.1924 19.308 21.0724 19.968 21.0004 20.592C20.9284 21.216 20.8924 21.828 20.8924 22.428C20.8924 22.548 20.8924 22.68 20.8924 22.824C20.9164 22.944 20.9284 23.064 20.9284 23.184C21.0244 23.04 21.1804 22.668 21.3964 22.068C21.6124 21.468 21.9004 20.772 22.2604 19.98C22.6444 19.164 23.1124 18.372 23.6644 17.604C24.2164 16.812 24.8644 16.164 25.6084 15.66C26.3524 15.132 27.2044 14.868 28.1644 14.868C28.9804 14.868 29.6164 15.06 30.0724 15.444C30.5284 15.804 30.8524 16.26 31.0444 16.812C31.2364 17.34 31.3324 17.88 31.3324 18.432C31.3324 19.2 31.2004 19.92 30.9364 20.592C30.6964 21.264 30.4444 21.9 30.1804 22.5C29.9404 23.076 29.8204 23.628 29.8204 24.156C29.8204 24.588 29.9164 24.888 30.1084 25.056C30.3004 25.224 30.5284 25.308 30.7924 25.308C31.3204 25.308 31.9324 25.044 32.6284 24.516C33.3484 23.988 34.0564 23.292 34.7524 22.428C35.4724 21.54 36.0844 20.568 36.5884 19.512L37.1644 20.124C36.6124 21.324 35.9644 22.428 35.2204 23.436C34.4764 24.444 33.6604 25.248 32.7724 25.848C31.8844 26.448 30.9244 26.748 29.8924 26.748C28.9804 26.748 28.2844 26.508 27.8044 26.028C27.3244 25.548 27.0844 24.948 27.0844 24.228C27.0844 23.724 27.1684 23.172 27.3364 22.572C27.5284 21.948 27.7084 21.324 27.8764 20.7C28.0444 20.076 28.1284 19.512 28.1284 19.008C28.1284 18.432 27.9964 18.036 27.7324 17.82C27.4924 17.604 27.1924 17.496 26.8324 17.496C26.2324 17.496 25.6924 17.736 25.2124 18.216C24.7324 18.672 24.3004 19.272 23.9164 20.016C23.5324 20.76 23.1724 21.552 22.8364 22.392C22.5004 23.208 22.1644 23.988 21.8284 24.732C21.4924 25.476 21.1324 26.076 20.7484 26.532C20.3884 27.012 19.9684 27.252 19.4884 27.252ZM22.8724 14.004C23.4964 13.452 24.0964 12.792 24.6724 12.024C25.2484 11.256 25.7764 10.464 26.2564 9.648C26.7604 8.808 27.1924 8.004 27.5524 7.236C27.9364 6.444 28.2364 5.736 28.4524 5.112C28.6684 4.488 28.7884 4.008 28.8124 3.672C28.8124 3.648 28.8124 3.636 28.8124 3.636C28.8124 3.612 28.8124 3.588 28.8124 3.564C28.6684 3.564 28.3564 3.864 27.8764 4.464C27.4204 5.04 26.8804 5.832 26.2564 6.84C25.6564 7.824 25.0444 8.94 24.4204 10.188C23.8204 11.436 23.3044 12.708 22.8724 14.004Z" fill="url(#paint1_radial_112_118)"/>
<path d="M37.6374 27.576C36.8454 27.576 36.1614 27.312 35.5854 26.784C34.9854 26.256 34.6854 25.464 34.6854 24.408C34.6854 23.568 34.8774 22.656 35.2614 21.672C35.6454 20.688 36.1734 19.716 36.8454 18.756C37.5174 17.796 38.2854 16.932 39.1494 16.164C40.0134 15.372 40.9374 14.736 41.9214 14.256C42.9054 13.776 43.8894 13.536 44.8734 13.536C45.9054 13.536 46.7814 13.8 47.5014 14.328C48.2214 14.856 48.5814 15.552 48.5814 16.416C48.5814 17.064 48.3534 17.532 47.8974 17.82C47.4414 18.108 46.9014 18.192 46.2774 18.072C46.3254 17.856 46.3614 17.64 46.3854 17.424C46.4334 17.208 46.4574 16.98 46.4574 16.74C46.4574 16.26 46.3614 15.828 46.1694 15.444C45.9774 15.06 45.5694 14.868 44.9454 14.868C44.2734 14.868 43.5894 15.096 42.8934 15.552C42.1974 16.008 41.5254 16.608 40.8774 17.352C40.2534 18.072 39.6894 18.876 39.1854 19.764C38.6814 20.628 38.2854 21.48 37.9974 22.32C37.7094 23.16 37.5654 23.916 37.5654 24.588C37.5654 25.356 37.8414 25.74 38.3934 25.74C38.9454 25.74 39.5574 25.476 40.2294 24.948C40.9014 24.396 41.5734 23.712 42.2454 22.896C42.9414 22.08 43.6014 21.252 44.2254 20.412C44.8494 19.548 45.3894 18.816 45.8454 18.216C45.9174 18.096 46.0134 18.036 46.1334 18.036C46.2294 18.06 46.4094 18.12 46.6734 18.216C46.9614 18.288 47.2254 18.408 47.4654 18.576C47.7054 18.744 47.8254 18.96 47.8254 19.224C47.8254 19.464 47.7174 19.776 47.5014 20.16C47.3094 20.52 47.0694 20.928 46.7814 21.384C46.5174 21.816 46.2774 22.26 46.0614 22.716C45.8694 23.148 45.7734 23.568 45.7734 23.976C45.7734 24.288 45.8574 24.588 46.0254 24.876C46.1934 25.14 46.4694 25.272 46.8534 25.272C47.4294 25.272 48.2334 24.852 49.2654 24.012C50.3214 23.148 51.3894 21.696 52.4694 19.656L53.1534 20.34C52.5774 21.636 51.8814 22.788 51.0654 23.796C50.2734 24.78 49.4334 25.548 48.5454 26.1C47.6574 26.676 46.7574 26.964 45.8454 26.964C44.8614 26.964 44.1294 26.652 43.6494 26.028C43.1694 25.404 42.9054 24.732 42.8574 24.012C42.8574 23.964 42.8574 23.928 42.8574 23.904C42.8574 23.88 42.8574 23.856 42.8574 23.832C41.8974 24.984 41.0094 25.896 40.1934 26.568C39.4014 27.24 38.5494 27.576 37.6374 27.576Z" fill="url(#paint2_radial_112_118)"/>
<path d="M60.6175 29.016C58.7935 29.016 57.2935 28.584 56.1175 27.72C54.9655 26.856 54.1135 25.74 53.5615 24.372C53.0335 23.004 52.7695 21.588 52.7695 20.124C52.7695 18.228 53.0575 16.332 53.6335 14.436C54.2095 12.516 55.0015 10.692 56.0095 8.964C57.0415 7.236 58.2055 5.7 59.5015 4.356C60.7975 3.012 62.1775 1.956 63.6415 1.188C65.1295 0.396 66.6055 0 68.0695 0C69.1255 0 70.0135 0.252 70.7335 0.756001C71.4535 1.236 71.8135 2.076 71.8135 3.276C71.8135 3.996 71.6815 4.8 71.4175 5.688C71.1775 6.576 70.8415 7.44 70.4095 8.28C70.0015 9.096 69.5335 9.768 69.0055 10.296C68.4775 10.824 67.9375 11.088 67.3855 11.088C67.1455 11.088 66.8935 11.004 66.6295 10.836C66.3655 10.668 66.1255 10.38 65.9095 9.972C66.2695 9.564 66.6775 9.072 67.1335 8.496C67.5895 7.896 68.0215 7.272 68.4295 6.624C68.8375 5.952 69.1735 5.304 69.4375 4.68C69.7015 4.032 69.8335 3.468 69.8335 2.988C69.8335 2.556 69.7135 2.22 69.4735 1.98C69.2335 1.716 68.8135 1.584 68.2135 1.584C67.1575 1.584 66.0655 1.98 64.9375 2.772C63.8335 3.564 62.7655 4.632 61.7335 5.976C60.7015 7.296 59.7655 8.784 58.9255 10.44C58.1095 12.072 57.4615 13.764 56.9815 15.516C56.5015 17.244 56.2615 18.888 56.2615 20.448C56.2615 21.6 56.4295 22.704 56.7655 23.76C57.1255 24.792 57.6895 25.632 58.4575 26.28C59.2255 26.952 60.2335 27.288 61.4815 27.288C62.7775 27.288 64.0615 26.928 65.3335 26.208C66.6295 25.488 67.8055 24.54 68.8615 23.364C69.9415 22.188 70.8055 20.928 71.4535 19.584L72.3895 20.196C71.5495 21.804 70.5415 23.28 69.3655 24.624C68.1895 25.944 66.8575 27 65.3695 27.792C63.9055 28.608 62.3215 29.016 60.6175 29.016Z" fill="url(#paint3_radial_112_118)"/>
<path d="M72.2579 27.252C71.7299 27.252 71.3459 26.844 71.1059 26.028C70.8899 25.212 70.7819 24.264 70.7819 23.184C70.7819 22.08 70.9619 20.748 71.3219 19.188C71.7059 17.628 72.2099 15.984 72.8339 14.256C73.4819 12.528 74.1899 10.836 74.9579 9.18C75.7499 7.524 76.5539 6.024 77.3699 4.68C78.2099 3.312 79.0019 2.22 79.7459 1.404C80.5139 0.588 81.1859 0.18 81.7619 0.18C82.2659 0.18 82.6499 0.456 82.9139 1.008C83.1779 1.56 83.3099 2.136 83.3099 2.736C83.3099 3.384 83.1539 4.188 82.8419 5.148C82.5539 6.084 82.1459 7.092 81.6179 8.172C81.0899 9.252 80.4659 10.32 79.7459 11.376C79.0499 12.408 78.2819 13.356 77.4419 14.22C76.6259 15.084 75.7739 15.78 74.8859 16.308C74.5739 17.124 74.3219 17.892 74.1299 18.612C73.9619 19.308 73.8419 19.968 73.7699 20.592C73.6979 21.216 73.6619 21.828 73.6619 22.428C73.6619 22.548 73.6619 22.68 73.6619 22.824C73.6859 22.944 73.6979 23.064 73.6979 23.184C73.7939 23.04 73.9499 22.668 74.1659 22.068C74.3819 21.468 74.6699 20.772 75.0299 19.98C75.4139 19.164 75.8819 18.372 76.4339 17.604C76.9859 16.812 77.6339 16.164 78.3779 15.66C79.1219 15.132 79.9739 14.868 80.9339 14.868C81.7499 14.868 82.3859 15.06 82.8419 15.444C83.2979 15.804 83.6219 16.26 83.8139 16.812C84.0059 17.34 84.1019 17.88 84.1019 18.432C84.1019 19.2 83.9699 19.92 83.7059 20.592C83.4659 21.264 83.2139 21.9 82.9499 22.5C82.7099 23.076 82.5899 23.628 82.5899 24.156C82.5899 24.588 82.6859 24.888 82.8779 25.056C83.0699 25.224 83.2979 25.308 83.5619 25.308C84.0899 25.308 84.7019 25.044 85.3979 24.516C86.1179 23.988 86.8259 23.292 87.5219 22.428C88.2419 21.54 88.8539 20.568 89.3579 19.512L89.9339 20.124C89.3819 21.324 88.7339 22.428 87.9899 23.436C87.2459 24.444 86.4299 25.248 85.5419 25.848C84.6539 26.448 83.6939 26.748 82.6619 26.748C81.7499 26.748 81.0539 26.508 80.5739 26.028C80.0939 25.548 79.8539 24.948 79.8539 24.228C79.8539 23.724 79.9379 23.172 80.1059 22.572C80.2979 21.948 80.4779 21.324 80.6459 20.7C80.8139 20.076 80.8979 19.512 80.8979 19.008C80.8979 18.432 80.7659 18.036 80.5019 17.82C80.2619 17.604 79.9619 17.496 79.6019 17.496C79.0019 17.496 78.4619 17.736 77.9819 18.216C77.5019 18.672 77.0699 19.272 76.6859 20.016C76.3019 20.76 75.9419 21.552 75.6059 22.392C75.2699 23.208 74.9339 23.988 74.5979 24.732C74.2619 25.476 73.9019 26.076 73.5179 26.532C73.1579 27.012 72.7379 27.252 72.2579 27.252ZM75.6419 14.004C76.2659 13.452 76.8659 12.792 77.4419 12.024C78.0179 11.256 78.5459 10.464 79.0259 9.648C79.5299 8.808 79.9619 8.004 80.3219 7.236C80.7059 6.444 81.0059 5.736 81.2219 5.112C81.4379 4.488 81.5579 4.008 81.5819 3.672C81.5819 3.648 81.5819 3.636 81.5819 3.636C81.5819 3.612 81.5819 3.588 81.5819 3.564C81.4379 3.564 81.1259 3.864 80.6459 4.464C80.1899 5.04 79.6499 5.832 79.0259 6.84C78.4259 7.824 77.8139 8.94 77.1899 10.188C76.5899 11.436 76.0739 12.708 75.6419 14.004Z" fill="url(#paint4_radial_112_118)"/>
<path d="M90.407 27.576C89.615 27.576 88.931 27.312 88.355 26.784C87.755 26.256 87.455 25.464 87.455 24.408C87.455 23.568 87.647 22.656 88.031 21.672C88.415 20.688 88.943 19.716 89.615 18.756C90.287 17.796 91.055 16.932 91.919 16.164C92.783 15.372 93.707 14.736 94.691 14.256C95.675 13.776 96.659 13.536 97.643 13.536C98.675 13.536 99.551 13.8 100.271 14.328C100.991 14.856 101.351 15.552 101.351 16.416C101.351 17.064 101.123 17.532 100.667 17.82C100.211 18.108 99.671 18.192 99.047 18.072C99.095 17.856 99.131 17.64 99.155 17.424C99.203 17.208 99.227 16.98 99.227 16.74C99.227 16.26 99.131 15.828 98.939 15.444C98.747 15.06 98.339 14.868 97.715 14.868C97.043 14.868 96.359 15.096 95.663 15.552C94.967 16.008 94.295 16.608 93.647 17.352C93.023 18.072 92.459 18.876 91.955 19.764C91.451 20.628 91.055 21.48 90.767 22.32C90.479 23.16 90.335 23.916 90.335 24.588C90.335 25.356 90.611 25.74 91.163 25.74C91.715 25.74 92.327 25.476 92.999 24.948C93.671 24.396 94.343 23.712 95.015 22.896C95.711 22.08 96.371 21.252 96.995 20.412C97.619 19.548 98.159 18.816 98.615 18.216C98.687 18.096 98.783 18.036 98.903 18.036C98.999 18.06 99.179 18.12 99.443 18.216C99.731 18.288 99.995 18.408 100.235 18.576C100.475 18.744 100.595 18.96 100.595 19.224C100.595 19.464 100.487 19.776 100.271 20.16C100.079 20.52 99.839 20.928 99.551 21.384C99.287 21.816 99.047 22.26 98.831 22.716C98.639 23.148 98.543 23.568 98.543 23.976C98.543 24.288 98.627 24.588 98.795 24.876C98.963 25.14 99.239 25.272 99.623 25.272C100.199 25.272 101.003 24.852 102.035 24.012C103.091 23.148 104.159 21.696 105.239 19.656L105.923 20.34C105.347 21.636 104.651 22.788 103.835 23.796C103.043 24.78 102.203 25.548 101.315 26.1C100.427 26.676 99.527 26.964 98.615 26.964C97.631 26.964 96.899 26.652 96.419 26.028C95.939 25.404 95.675 24.732 95.627 24.012C95.627 23.964 95.627 23.928 95.627 23.904C95.627 23.88 95.627 23.856 95.627 23.832C94.667 24.984 93.779 25.896 92.963 26.568C92.171 27.24 91.319 27.576 90.407 27.576Z" fill="url(#paint5_radial_112_118)"/>
<path d="M113.387 29.016C111.563 29.016 110.063 28.584 108.887 27.72C107.735 26.856 106.883 25.74 106.331 24.372C105.803 23.004 105.539 21.588 105.539 20.124C105.539 18.228 105.827 16.332 106.403 14.436C106.979 12.516 107.771 10.692 108.779 8.964C109.811 7.236 110.975 5.7 112.271 4.356C113.567 3.012 114.947 1.956 116.411 1.188C117.899 0.396 119.375 0 120.839 0C121.895 0 122.783 0.252 123.503 0.756001C124.223 1.236 124.583 2.076 124.583 3.276C124.583 3.996 124.451 4.8 124.187 5.688C123.947 6.576 123.611 7.44 123.179 8.28C122.771 9.096 122.303 9.768 121.775 10.296C121.247 10.824 120.707 11.088 120.155 11.088C119.915 11.088 119.663 11.004 119.399 10.836C119.135 10.668 118.895 10.38 118.679 9.972C119.039 9.564 119.447 9.072 119.903 8.496C120.359 7.896 120.791 7.272 121.199 6.624C121.607 5.952 121.943 5.304 122.207 4.68C122.471 4.032 122.603 3.468 122.603 2.988C122.603 2.556 122.483 2.22 122.243 1.98C122.003 1.716 121.583 1.584 120.983 1.584C119.927 1.584 118.835 1.98 117.707 2.772C116.603 3.564 115.535 4.632 114.503 5.976C113.471 7.296 112.535 8.784 111.695 10.44C110.879 12.072 110.231 13.764 109.751 15.516C109.271 17.244 109.031 18.888 109.031 20.448C109.031 21.6 109.199 22.704 109.535 23.76C109.895 24.792 110.459 25.632 111.227 26.28C111.995 26.952 113.003 27.288 114.251 27.288C115.547 27.288 116.831 26.928 118.103 26.208C119.399 25.488 120.575 24.54 121.631 23.364C122.711 22.188 123.575 20.928 124.223 19.584L125.159 20.196C124.319 21.804 123.311 23.28 122.135 24.624C120.959 25.944 119.627 27 118.139 27.792C116.675 28.608 115.091 29.016 113.387 29.016Z" fill="url(#paint6_radial_112_118)"/>
<path d="M125.027 27.252C124.499 27.252 124.115 26.844 123.875 26.028C123.659 25.212 123.551 24.264 123.551 23.184C123.551 22.08 123.731 20.748 124.091 19.188C124.475 17.628 124.979 15.984 125.603 14.256C126.251 12.528 126.959 10.836 127.727 9.18C128.519 7.524 129.323 6.024 130.139 4.68C130.979 3.312 131.771 2.22 132.515 1.404C133.283 0.588 133.955 0.18 134.531 0.18C135.035 0.18 135.419 0.456 135.683 1.008C135.947 1.56 136.079 2.136 136.079 2.736C136.079 3.384 135.923 4.188 135.611 5.148C135.323 6.084 134.915 7.092 134.387 8.172C133.859 9.252 133.235 10.32 132.515 11.376C131.819 12.408 131.051 13.356 130.211 14.22C129.395 15.084 128.543 15.78 127.655 16.308C127.343 17.124 127.091 17.892 126.899 18.612C126.731 19.308 126.611 19.968 126.539 20.592C126.467 21.216 126.431 21.828 126.431 22.428C126.431 22.548 126.431 22.68 126.431 22.824C126.455 22.944 126.467 23.064 126.467 23.184C126.563 23.04 126.719 22.668 126.935 22.068C127.151 21.468 127.439 20.772 127.799 19.98C128.183 19.164 128.651 18.372 129.203 17.604C129.755 16.812 130.403 16.164 131.147 15.66C131.891 15.132 132.743 14.868 133.703 14.868C134.519 14.868 135.155 15.06 135.611 15.444C136.067 15.804 136.391 16.26 136.583 16.812C136.775 17.34 136.871 17.88 136.871 18.432C136.871 19.2 136.739 19.92 136.475 20.592C136.235 21.264 135.983 21.9 135.719 22.5C135.479 23.076 135.359 23.628 135.359 24.156C135.359 24.588 135.455 24.888 135.647 25.056C135.839 25.224 136.067 25.308 136.331 25.308C136.859 25.308 137.471 25.044 138.167 24.516C138.887 23.988 139.595 23.292 140.291 22.428C141.011 21.54 141.623 20.568 142.127 19.512L142.703 20.124C142.151 21.324 141.503 22.428 140.759 23.436C140.015 24.444 139.199 25.248 138.311 25.848C137.423 26.448 136.463 26.748 135.431 26.748C134.519 26.748 133.823 26.508 133.343 26.028C132.863 25.548 132.623 24.948 132.623 24.228C132.623 23.724 132.707 23.172 132.875 22.572C133.067 21.948 133.247 21.324 133.415 20.7C133.583 20.076 133.667 19.512 133.667 19.008C133.667 18.432 133.535 18.036 133.271 17.82C133.031 17.604 132.731 17.496 132.371 17.496C131.771 17.496 131.231 17.736 130.751 18.216C130.271 18.672 129.839 19.272 129.455 20.016C129.071 20.76 128.711 21.552 128.375 22.392C128.039 23.208 127.703 23.988 127.367 24.732C127.031 25.476 126.671 26.076 126.287 26.532C125.927 27.012 125.507 27.252 125.027 27.252ZM128.411 14.004C129.035 13.452 129.635 12.792 130.211 12.024C130.787 11.256 131.315 10.464 131.795 9.648C132.299 8.808 132.731 8.004 133.091 7.236C133.475 6.444 133.775 5.736 133.991 5.112C134.207 4.488 134.327 4.008 134.351 3.672C134.351 3.648 134.351 3.636 134.351 3.636C134.351 3.612 134.351 3.588 134.351 3.564C134.207 3.564 133.895 3.864 133.415 4.464C132.959 5.04 132.419 5.832 131.795 6.84C131.195 7.824 130.583 8.94 129.959 10.188C129.359 11.436 128.843 12.708 128.411 14.004Z" fill="url(#paint7_radial_112_118)"/>
<path d="M143.176 27.576C142.384 27.576 141.7 27.312 141.124 26.784C140.524 26.256 140.225 25.464 140.225 24.408C140.225 23.568 140.417 22.656 140.801 21.672C141.185 20.688 141.713 19.716 142.385 18.756C143.057 17.796 143.825 16.932 144.689 16.164C145.553 15.372 146.476 14.736 147.46 14.256C148.444 13.776 149.429 13.536 150.413 13.536C151.445 13.536 152.32 13.8 153.04 14.328C153.76 14.856 154.12 15.552 154.12 16.416C154.12 17.064 153.893 17.532 153.437 17.82C152.981 18.108 152.44 18.192 151.816 18.072C151.864 17.856 151.9 17.64 151.924 17.424C151.972 17.208 151.997 16.98 151.997 16.74C151.997 16.26 151.9 15.828 151.708 15.444C151.516 15.06 151.108 14.868 150.484 14.868C149.812 14.868 149.128 15.096 148.432 15.552C147.736 16.008 147.065 16.608 146.417 17.352C145.793 18.072 145.229 18.876 144.725 19.764C144.221 20.628 143.824 21.48 143.536 22.32C143.248 23.16 143.105 23.916 143.105 24.588C143.105 25.356 143.38 25.74 143.932 25.74C144.484 25.74 145.096 25.476 145.768 24.948C146.44 24.396 147.112 23.712 147.785 22.896C148.481 22.08 149.14 21.252 149.764 20.412C150.388 19.548 150.929 18.816 151.385 18.216C151.457 18.096 151.553 18.036 151.673 18.036C151.769 18.06 151.948 18.12 152.212 18.216C152.5 18.288 152.765 18.408 153.005 18.576C153.245 18.744 153.365 18.96 153.365 19.224C153.365 19.464 153.256 19.776 153.04 20.16C152.848 20.52 152.608 20.928 152.32 21.384C152.056 21.816 151.816 22.26 151.6 22.716C151.408 23.148 151.312 23.568 151.312 23.976C151.312 24.288 151.396 24.588 151.564 24.876C151.732 25.14 152.009 25.272 152.393 25.272C152.969 25.272 153.773 24.852 154.805 24.012C155.861 23.148 156.928 21.696 158.008 19.656L158.693 20.34C158.117 21.636 157.421 22.788 156.605 23.796C155.813 24.78 154.973 25.548 154.085 26.1C153.197 26.676 152.297 26.964 151.385 26.964C150.401 26.964 149.669 26.652 149.189 26.028C148.709 25.404 148.444 24.732 148.396 24.012C148.396 23.964 148.396 23.928 148.396 23.904C148.396 23.88 148.396 23.856 148.396 23.832C147.436 24.984 146.548 25.896 145.732 26.568C144.94 27.24 144.088 27.576 143.176 27.576Z" fill="url(#paint8_radial_112_118)"/>
<path d="M160.433 27.54C159.377 27.54 158.525 27.228 157.877 26.604C157.229 25.98 156.905 25.032 156.905 23.76C156.905 22.776 157.085 21.552 157.445 20.088C157.829 18.624 158.309 17.112 158.885 15.552C158.717 15.504 158.513 15.468 158.273 15.444C158.057 15.396 157.841 15.324 157.625 15.228V14.112C158.009 14.16 158.321 14.196 158.561 14.22C158.825 14.244 159.089 14.268 159.353 14.292C159.857 13.02 160.397 11.796 160.973 10.62C161.573 9.42 162.161 8.352 162.737 7.416C163.337 6.48 163.901 5.748 164.429 5.22C164.957 4.668 165.425 4.392 165.833 4.392C166.073 4.392 166.301 4.488 166.517 4.68C166.733 4.848 166.841 5.1 166.841 5.436C166.841 5.916 166.589 6.6 166.085 7.488C165.605 8.376 165.005 9.42 164.285 10.62C163.565 11.796 162.869 13.056 162.197 14.4C162.389 14.4 162.581 14.4 162.773 14.4C162.965 14.4 163.145 14.4 163.313 14.4C164.369 14.4 165.317 14.388 166.157 14.364C167.021 14.316 167.897 14.244 168.785 14.148V15.336C167.465 15.456 166.253 15.552 165.149 15.624C164.045 15.696 162.989 15.744 161.981 15.768C161.909 15.768 161.837 15.768 161.765 15.768C161.693 15.768 161.621 15.768 161.549 15.768C161.045 16.944 160.601 18.156 160.217 19.404C159.857 20.628 159.677 21.828 159.677 23.004C159.677 23.988 159.833 24.684 160.145 25.092C160.457 25.5 160.949 25.704 161.621 25.704C162.821 25.704 164.045 25.164 165.293 24.084C166.565 22.98 167.669 21.492 168.605 19.62L169.109 19.98C168.485 21.396 167.705 22.68 166.769 23.832C165.857 24.984 164.861 25.884 163.781 26.532C162.701 27.204 161.585 27.54 160.433 27.54Z" fill="url(#paint9_radial_112_118)"/>
<defs>
<radialGradient id="paint0_radial_112_118" cx="0" cy="0" r="1" gradientUnits="userSpaceOnUse" gradientTransform="translate(-1.15198 -0.115967) rotate(8.74616) scale(170.988 71.9886)">
<stop stop-color="#5D00F4"/>
<stop offset="1" stop-color="#351863"/>
</radialGradient>
<radialGradient id="paint1_radial_112_118" cx="0" cy="0" r="1" gradientUnits="userSpaceOnUse" gradientTransform="translate(-1.15198 -0.115967) rotate(8.74616) scale(170.988 71.9886)">
<stop stop-color="#5D00F4"/>
<stop offset="1" stop-color="#351863"/>
</radialGradient>
<radialGradient id="paint2_radial_112_118" cx="0" cy="0" r="1" gradientUnits="userSpaceOnUse" gradientTransform="translate(-1.15198 -0.115967) rotate(8.74616) scale(170.988 71.9886)">
<stop stop-color="#5D00F4"/>
<stop offset="1" stop-color="#351863"/>
</radialGradient>
<radialGradient id="paint3_radial_112_118" cx="0" cy="0" r="1" gradientUnits="userSpaceOnUse" gradientTransform="translate(-1.15198 -0.115967) rotate(8.74616) scale(170.988 71.9886)">
<stop stop-color="#5D00F4"/>
<stop offset="1" stop-color="#351863"/>
</radialGradient>
<radialGradient id="paint4_radial_112_118" cx="0" cy="0" r="1" gradientUnits="userSpaceOnUse" gradientTransform="translate(-1.15198 -0.115967) rotate(8.74616) scale(170.988 71.9886)">
<stop stop-color="#5D00F4"/>
<stop offset="1" stop-color="#351863"/>
</radialGradient>
<radialGradient id="paint5_radial_112_118" cx="0" cy="0" r="1" gradientUnits="userSpaceOnUse" gradientTransform="translate(-1.15198 -0.115967) rotate(8.74616) scale(170.988 71.9886)">
<stop stop-color="#5D00F4"/>
<stop offset="1" stop-color="#351863"/>
</radialGradient>
<radialGradient id="paint6_radial_112_118" cx="0" cy="0" r="1" gradientUnits="userSpaceOnUse" gradientTransform="translate(-1.15198 -0.115967) rotate(8.74616) scale(170.988 71.9886)">
<stop stop-color="#5D00F4"/>
<stop offset="1" stop-color="#351863"/>
</radialGradient>
<radialGradient id="paint7_radial_112_118" cx="0" cy="0" r="1" gradientUnits="userSpaceOnUse" gradientTransform="translate(-1.15198 -0.115967) rotate(8.74616) scale(170.988 71.9886)">
<stop stop-color="#5D00F4"/>
<stop offset="1" stop-color="#351863"/>
</radialGradient>
<radialGradient id="paint8_radial_112_118" cx="0" cy="0" r="1" gradientUnits="userSpaceOnUse" gradientTransform="translate(-1.15198 -0.115967) rotate(8.74616) scale(170.988 71.9886)">
<stop stop-color="#5D00F4"/>
<stop offset="1" stop-color="#351863"/>
</radialGradient>
<radialGradient id="paint9_radial_112_118" cx="0" cy="0" r="1" gradientUnits="userSpaceOnUse" gradientTransform="translate(-1.15198 -0.115967) rotate(8.74616) scale(170.988 71.9886)">
<stop stop-color="#5D00F4"/>
<stop offset="1" stop-color="#351863"/>
</radialGradient>
</defs>
</svg>
